<svg width="331" height="248" viewBox="0 0 331 248" fill="none" xmlns="http://www.w3.org/2000/svg">
<g clip-path="url(#clip0_3_72)">
<path d="M325.425 174.343C319.636 186.638 309.614 196.045 298.147 203.203C293.445 206.115 288.554 208.693 283.51 210.918C280.211 212.389 276.866 213.731 273.476 214.945C256.661 220.99 238.868 223.944 221.045 223.954C218.132 223.957 215.22 223.88 212.307 223.723C211.471 223.678 210.636 223.628 209.8 223.571C205.397 223.27 201.009 222.789 196.635 222.125C196.549 222.113 196.46 222.1 196.373 222.084C187.224 220.693 178.204 218.517 169.407 215.578C167.702 215.008 166.007 214.41 164.322 213.784C163.867 213.62 163.413 213.446 162.961 213.275C161.062 212.55 159.178 211.79 157.308 210.994C155.734 210.327 154.171 209.634 152.616 208.916C151.086 208.204 149.566 207.469 148.057 206.711C145.586 205.465 143.143 204.159 140.726 202.792C138.861 201.729 137.02 200.626 135.205 199.483C130.701 196.652 126.344 193.582 122.15 190.285C120.669 189.121 119.209 187.927 117.769 186.704C116.77 185.857 115.781 184.99 114.776 184.149C112.656 182.374 110.475 180.688 108.041 179.426C107.307 179.045 106.554 178.703 105.786 178.401C102.915 177.307 99.89 176.702 96.8299 176.608C91.6099 176.396 86.2209 177.395 81.1728 178.876C78.7734 179.575 76.4014 180.378 74.0295 181.2C73.0555 181.539 72.0826 181.878 71.1107 182.219C69.1013 182.924 67.0921 183.614 65.0642 184.243C64.3882 184.452 63.7124 184.658 63.0332 184.851C60.3223 185.654 57.5595 186.259 54.7654 186.66C48.5258 187.477 42.1887 186.908 36.1803 184.993L35.6672 184.829C34.807 184.55 33.9559 184.247 33.1079 183.914L32.5948 183.712C31.7776 183.386 30.9757 183.037 30.1891 182.665L29.676 182.425C28.9202 182.061 28.1797 181.681 27.4516 181.28C27.3901 181.248 27.3318 181.216 27.2703 181.181C26.9876 181.03 26.7081 180.865 26.4315 180.71C21.9706 178.14 17.914 174.888 14.4 171.066C14.2986 170.961 14.2033 170.854 14.0927 170.749C13.6041 170.205 13.1248 169.652 12.6609 169.086C12.4889 168.877 12.3168 168.668 12.1479 168.453C11.5979 167.76 11.0664 167.053 10.5533 166.33C10.4765 166.226 10.4027 166.119 10.329 166.014C8.23084 163.024 6.49054 159.785 5.14579 156.367C5.10273 156.262 5.06283 156.155 5.02592 156.05C4.61727 154.965 4.24347 153.861 3.90452 152.738C3.7662 152.27 3.63418 151.789 3.51732 151.321C3.47741 151.182 3.44051 151.04 3.40675 150.901C1.72622 144.03 1.54486 136.885 1.54486 129.78V127.297C1.59407 115.805 1.76614 104.118 3.41292 92.7839C3.41946 92.7052 3.43073 92.6271 3.44667 92.5498C3.99974 88.7347 4.74945 84.9526 5.69263 81.2194C6.6831 77.3032 7.9471 73.4658 9.47479 69.7372C13.2631 60.564 18.772 52.2164 24.8891 44.4794C40.282 25.0228 60.4893 8.66609 84.1408 2.56436C109.627 -4.02449 137.951 2.28917 158.509 19.1393C164.571 24.1055 170.037 29.9573 176.756 33.8986C176.983 34.0346 177.214 34.1675 177.447 34.2971C178.335 34.7937 179.243 35.245 180.169 35.651C181.397 36.1911 182.661 36.6403 183.952 36.9953C188.035 38.1246 192.302 38.2258 196.373 36.8245C196.705 36.7075 197.037 36.5841 197.366 36.4481C198.063 36.1634 198.73 35.8977 199.372 35.651C203.753 33.9713 207.127 33.1553 212.451 33.4494C225.096 34.1828 237.562 36.8688 249.431 41.4174C249.91 41.5977 250.39 41.7843 250.866 41.971C281.808 54.1649 308.413 78.3789 322.232 109.495C322.601 110.317 322.956 111.146 323.298 111.981C331.542 131.789 334.516 155.028 325.425 174.343Z" fill="#F2F2F2"/>
<path d="M19.5433 162.149V162.275L19.497 162.332L19.5433 162.149Z" fill="#CACACA"/>
<path d="M74.0294 181.2C73.0555 181.539 72.0826 181.878 71.1107 182.219V181.2H74.0294Z" fill="white"/>
<path d="M183.952 18.5891H176.755V37.1109H183.952V18.5891Z" fill="#E4E4E4"/>
<path d="M196.373 35.651V222.084C187.224 220.693 178.204 218.517 169.407 215.578C167.702 215.008 166.007 214.41 164.322 213.784C163.867 213.62 163.413 213.446 162.961 213.275C161.062 212.55 159.178 211.79 157.308 210.994C155.734 210.327 154.171 209.634 152.616 208.916C151.086 208.204 149.566 207.469 148.057 206.711C145.586 205.465 143.143 204.159 140.726 202.792C138.861 201.729 137.02 200.626 135.205 199.483V35.651H196.373Z" fill="#E4E4E4"/>
<path d="M221.045 35.651V223.954C218.132 223.957 215.22 223.88 212.307 223.723C211.471 223.678 210.636 223.628 209.8 223.571C205.397 223.27 201.009 222.789 196.635 222.125C196.549 222.113 196.46 222.1 196.373 222.084V35.651H221.045Z" fill="#CACACA"/>
<path d="M155.509 54.1722H146.256V63.6977H155.509V54.1722Z" fill="white"/>
<path d="M170.415 54.1722H161.163V63.6977H170.415V54.1722Z" fill="white"/>
<path d="M185.321 54.1722H176.069V63.6977H185.321V54.1722Z" fill="white"/>
<path d="M155.766 75.8691H146.513V85.3946H155.766V75.8691Z" fill="white"/>
<path d="M170.672 75.8691H161.42V85.3946H170.672V75.8691Z" fill="white"/>
<path d="M185.578 75.8691H176.326V85.3946H185.578V75.8691Z" fill="white"/>
<path d="M156.023 97.5661H146.77V107.092H156.023V97.5661Z" fill="white"/>
<path d="M170.929 97.5661H161.677V107.092H170.929V97.5661Z" fill="white"/>
<path d="M185.835 97.5661H176.583V107.092H185.835V97.5661Z" fill="white"/>
<path d="M156.28 119.263H147.027V128.788H156.28V119.263Z" fill="white"/>
<path d="M171.186 119.263H161.934V128.788H171.186V119.263Z" fill="white"/>
<path d="M186.092 119.263H176.84V128.788H186.092V119.263Z" fill="white"/>
<path d="M156.537 140.96H147.284V150.485H156.537V140.96Z" fill="white"/>
<path d="M171.443 140.96H162.191V150.485H171.443V140.96Z" fill="white"/>
<path d="M186.349 140.96H177.097V150.485H186.349V140.96Z" fill="white"/>
<path d="M156.794 162.657H147.541V172.182H156.794V162.657Z" fill="white"/>
<path d="M171.7 162.657H162.448V172.182H171.7V162.657Z" fill="white"/>
<path d="M186.606 162.657H177.354V172.182H186.606V162.657Z" fill="white"/>
<path d="M157.051 184.354H147.798V193.879H157.051V184.354Z" fill="white"/>
<path d="M171.957 184.354H162.705V193.879H171.957V184.354Z" fill="white"/>
<path d="M186.863 184.354H177.611V193.879H186.863V184.354Z" fill="white"/>
<path d="M157.308 206.05V210.994C155.734 210.327 154.171 209.634 152.616 208.916C151.086 208.204 149.566 207.469 148.057 206.711V206.05H157.308Z" fill="white"/>
<path d="M172.215 206.05V215.578H169.407C167.702 215.008 166.007 214.41 164.322 213.784C163.867 213.62 163.413 213.446 162.961 213.275V206.05L172.215 206.05Z" fill="white"/>
<path d="M187.12 206.051H177.868V215.576H187.12V206.051Z" fill="white"/>
<path d="M267.821 112.913H260.624V123.89H267.821V112.913Z" fill="#E4E4E4"/>
<path d="M273.476 122.948V214.945C256.661 220.99 238.868 223.944 221.045 223.954C218.132 223.957 215.22 223.88 212.307 223.723V122.948H273.476Z" fill="#E4E4E4"/>
<path d="M298.147 122.948V203.203C293.445 206.115 288.554 208.693 283.51 210.918C280.211 212.389 276.866 213.731 273.476 214.945V122.948H298.147Z" fill="#CACACA"/>
<path d="M233.639 140.96H224.386V150.485H233.639V140.96Z" fill="white"/>
<path d="M248.545 140.96H239.293V150.485H248.545V140.96Z" fill="white"/>
<path d="M263.452 140.96H254.199V150.485H263.452V140.96Z" fill="white"/>
<path d="M233.896 162.657H224.643V172.182H233.896V162.657Z" fill="white"/>
<path d="M248.802 162.657H239.55V172.182H248.802V162.657Z" fill="white"/>
<path d="M263.709 162.657H254.456V172.182H263.709V162.657Z" fill="white"/>
<path d="M234.153 184.354H224.9V193.879H234.153V184.354Z" fill="white"/>
<path d="M249.059 184.354H239.807V193.879H249.059V184.354Z" fill="white"/>
<path d="M263.966 184.354H254.713V193.879H263.966V184.354Z" fill="white"/>
<path d="M234.41 206.051H225.157V215.576H234.41V206.051Z" fill="white"/>
<path d="M249.316 206.051H240.064V215.576H249.316V206.051Z" fill="white"/>
<path d="M264.223 206.051H254.97V215.576H264.223V206.051Z" fill="white"/>
<path d="M219.547 226.855C219.547 226.855 222.839 238.907 236.623 238.359C250.408 237.811 256.367 226.636 256.367 226.636L219.547 226.855Z" fill="#3F3D56"/>
<path d="M29.597 179.855L25.6588 187.281L26.2981 201.219L120.67 230.088L161.764 235.291L153.73 184.835L125.617 179.71L83.4428 180.951L47.6874 174.158L29.597 179.855Z" fill="#2F2E41"/>
<path d="M42.7341 228.718H40.2979C37.9428 228.727 35.6345 228.041 33.6459 226.742C31.6574 225.443 30.0716 223.585 29.0761 221.387C25.3204 212.946 26.4329 201.274 26.4494 201.107C27.3004 191.019 32.6711 184.436 39.8146 184.735C47.7007 185.062 54.4254 213.145 54.7078 214.34C55.1764 216.356 55.0532 218.469 54.3536 220.413C53.4833 222.861 51.9001 224.972 49.8203 226.458C47.7406 227.945 45.2658 228.734 42.7341 228.718V228.718Z" fill="#3F3D56"/>
<path d="M142.077 248C141.661 247.99 141.245 247.949 140.834 247.876C137.682 247.365 134.702 246.056 132.163 244.066C129.624 242.076 127.605 239.467 126.287 236.475C125.299 234.264 124.349 231.999 123.463 229.745C119.903 220.692 122.887 204.865 127.735 198.74C132.014 193.333 136.321 193.376 142.841 193.439C143.51 193.446 144.204 193.452 144.924 193.453C152.162 193.466 159.815 220.881 162.33 229.89C162.53 230.607 162.696 231.2 162.824 231.645C163.218 233.014 163.171 234.651 162.685 236.511C161.15 242.379 156.093 246.731 150.101 247.341C145.797 247.778 143.098 248 142.077 248Z" fill="#3F3D56"/>
<path d="M26.298 201.219C26.298 201.219 23.5312 188.51 27.6814 179.855L31.8643 169.447L47.6707 184.566L51.28 208.224L113.133 217.872C113.133 217.872 109.302 179.088 133.351 177.555C157.401 176.021 168.813 217.872 168.813 217.872L180.812 226.855L264.455 220.501C264.455 220.501 265.931 224.664 263.809 226.855C261.688 229.047 160.168 235.839 160.168 235.839C160.168 235.839 155.06 183.909 134.841 188.729C114.622 193.55 120.67 230.088 120.67 230.088L48.4323 216.995C48.4323 216.995 46.0912 181.718 34.1727 181.718C22.2543 181.718 26.298 201.219 26.298 201.219Z" fill="#3F3D56"/>
<path d="M40.5517 157.037L54.1788 135.046L112.281 131.54L176.769 132.417L206.778 161.121L113.984 166.599L39.2806 162.436L40.5517 157.037Z" fill="#3F3D56"/>
<path d="M40.5518 157.038C40.5518 157.038 28.9584 157.286 27.6815 179.855C27.6815 179.855 40.0256 156.848 50.6671 208.121L114.197 218.748C114.197 218.748 111.856 176.021 135.905 179.307C159.955 182.594 165.702 221.816 165.702 221.816C165.702 221.816 170.384 231.457 196.136 229.923C221.889 228.389 260.411 225.979 264.455 220.501C264.455 220.501 273.819 187.853 244.661 166.818L206.778 161.121L121.007 162.874L40.5518 157.038Z" fill="#F50057"/>
<path d="M69.6089 172.405H62.3727C62.1766 172.406 61.9823 172.367 61.8009 172.29C61.6195 172.214 61.4546 172.101 61.3156 171.958C61.1767 171.816 61.0664 171.646 60.9912 171.46C60.916 171.273 60.8773 171.073 60.8773 170.872C60.8773 170.67 60.916 170.47 60.9912 170.283C61.0664 170.097 61.1767 169.927 61.3156 169.785C61.4546 169.642 61.6195 169.53 61.8009 169.453C61.9823 169.376 62.1766 169.337 62.3727 169.338H69.6089C70.0031 169.339 70.3806 169.502 70.6587 169.789C70.9369 170.077 71.0931 170.466 71.0931 170.872C71.0931 171.277 70.9369 171.667 70.6587 171.954C70.3806 172.242 70.0031 172.404 69.6089 172.405V172.405Z" fill="#CACACA"/>
<path d="M179.748 220.063C182.334 220.063 184.431 217.905 184.431 215.242C184.431 212.58 182.334 210.422 179.748 210.422C177.162 210.422 175.066 212.58 175.066 215.242C175.066 217.905 177.162 220.063 179.748 220.063Z" fill="white"/>
<path d="M177.429 191.589C174.223 191.589 170.396 190.18 166.97 187.463C160.925 182.669 158.386 175.59 161.309 171.684C164.232 167.777 171.528 168.499 177.573 173.293C180.494 175.61 182.694 178.522 183.766 181.492C184.845 184.48 184.656 187.172 183.234 189.072C181.967 190.765 179.88 191.589 177.429 191.589Z" fill="white"/>
<path d="M260.634 185.468C258.275 185.468 254.039 183.009 249.845 179.02C247.33 176.628 245.248 174.065 243.98 171.801C242.692 169.502 242.399 167.773 243.154 166.932C243.909 166.09 245.607 166.255 247.935 167.395C250.226 168.517 252.873 170.453 255.387 172.844C260.693 177.891 263.631 183.201 262.078 184.933C261.887 185.121 261.66 185.266 261.411 185.359C261.162 185.451 260.897 185.488 260.634 185.468V185.468Z" fill="white"/>
<path d="M62.8389 157.033C62.7883 157.033 62.7374 157.031 62.6863 157.026L47.2968 155.553C47.0159 155.526 46.7465 155.425 46.5139 155.261C46.2813 155.097 46.0933 154.874 45.9677 154.614C45.8421 154.354 45.7832 154.066 45.7964 153.776C45.8096 153.486 45.8946 153.204 46.0432 152.957L54.7214 138.553C54.8633 138.317 55.059 138.12 55.2915 137.98C55.5239 137.84 55.7861 137.76 56.0552 137.748L67.5336 137.227C67.7975 137.215 68.0603 137.268 68.3002 137.382C68.54 137.496 68.7499 137.667 68.9123 137.882C69.0746 138.096 69.1848 138.348 69.2335 138.615C69.2823 138.882 69.2682 139.158 69.1924 139.418L64.4255 155.817C64.3225 156.168 64.1127 156.476 63.8271 156.695C63.5414 156.914 63.195 157.032 62.8389 157.033Z" fill="white"/>
<path d="M103.393 160.408C103.241 160.408 103.088 160.4 102.934 160.385L76.3287 157.688C75.6563 157.62 75.0064 157.402 74.4244 157.049C73.8423 156.695 73.3422 156.215 72.9588 155.643C72.5755 155.07 72.3181 154.418 72.2047 153.732C72.0913 153.046 72.1246 152.343 72.3023 151.672L76.1298 137.213C76.3874 136.227 76.9464 135.352 77.7242 134.717C78.5021 134.083 79.4574 133.723 80.4492 133.691L101.921 132.919C103.086 132.884 104.222 133.298 105.106 134.08C105.989 134.862 106.557 135.957 106.697 137.148L108.469 152.884C108.528 153.409 108.502 153.94 108.392 154.456L107.927 156.648C107.7 157.712 107.127 158.666 106.303 159.35C105.478 160.033 104.452 160.407 103.393 160.408Z" fill="white"/>
<path d="M124.157 161.169C123.379 161.166 122.623 160.894 122.014 160.395C121.404 159.896 120.976 159.2 120.798 158.419L116.104 137.533C115.988 137.013 115.986 136.472 116.1 135.951C116.215 135.43 116.442 134.942 116.765 134.524C117.088 134.106 117.498 133.769 117.965 133.536C118.432 133.304 118.944 133.184 119.463 133.184H175.121C175.582 133.185 176.039 133.281 176.464 133.466C176.889 133.651 177.274 133.922 177.596 134.262L195.775 153.559C196.242 154.055 196.559 154.68 196.686 155.358C196.813 156.036 196.745 156.738 196.49 157.377C196.236 158.016 195.806 158.564 195.253 158.956C194.7 159.347 194.048 159.563 193.377 159.579L124.234 161.168C124.208 161.169 124.183 161.169 124.157 161.169Z" fill="white"/>
<path d="M53.7037 135.813L54.1788 135.046C54.1788 135.046 56.9456 127.158 95.0421 125.843C133.139 124.529 168.681 125.186 176.769 132.417L111.004 132.198L55.4557 136.142L53.7037 135.813Z" fill="#F50057"/>
<path d="M35.6626 192.016C31.6661 192.016 28.4264 198.883 28.4264 207.354C28.4264 215.825 31.6661 222.692 35.6626 222.692C39.6591 222.692 42.8988 215.825 42.8988 207.354C42.8988 198.883 39.6591 192.016 35.6626 192.016ZM35.9818 195.303C36.8634 195.303 37.5781 197.069 37.5781 199.247C37.5781 201.425 36.8634 203.191 35.9818 203.191C35.1003 203.191 34.3856 201.425 34.3856 199.247C34.3856 197.069 35.1003 195.303 35.9818 195.303ZM36.9396 207.354C36.9396 208.08 36.4631 208.669 35.8754 208.669C35.2878 208.669 34.8113 208.08 34.8113 207.354C34.8113 206.628 35.2878 206.039 35.8754 206.039C36.4631 206.039 36.9396 206.628 36.9396 207.354V207.354ZM31.3794 208.198C30.0109 208.307 28.8659 207.919 28.8218 207.332C28.7778 206.745 29.8514 206.181 31.2199 206.072C32.5883 205.963 33.7333 206.351 33.7774 206.938C33.8214 207.525 32.7478 208.089 31.3794 208.198L31.3794 208.198ZM35.9819 219.406C35.1003 219.406 34.3856 217.64 34.3856 215.461C34.3856 213.283 35.1003 211.517 35.9819 211.517C36.8634 211.517 37.5781 213.283 37.5781 215.461C37.5781 217.64 36.8634 219.406 35.9818 219.406H35.9819ZM40.1054 208.198C38.7369 208.307 37.5919 207.919 37.5478 207.332C37.5038 206.745 38.5774 206.181 39.9459 206.072C41.3143 205.963 42.4593 206.351 42.5034 206.938C42.5475 207.525 41.4738 208.089 40.1054 208.198L40.1054 208.198Z" fill="#E4E4E4"/>
<path d="M136.757 202.315C130.409 202.315 125.264 211.095 125.264 221.925C125.264 232.756 130.409 241.536 136.757 241.536C143.104 241.536 148.25 232.756 148.25 221.925C148.25 211.095 143.104 202.315 136.757 202.315ZM129.891 223.397C128.037 223.544 126.486 223.019 126.426 222.224C126.367 221.429 127.821 220.665 129.675 220.517C131.528 220.37 133.079 220.895 133.139 221.69C133.199 222.485 131.744 223.25 129.891 223.397ZM136.763 238.359C135.569 238.359 134.601 235.967 134.601 233.017C134.601 230.066 135.569 227.674 136.763 227.674C137.958 227.674 138.926 230.066 138.926 233.017C138.926 235.967 137.958 238.359 136.763 238.359V238.359ZM135.054 222.035C135.054 220.873 135.816 219.931 136.757 219.931C137.697 219.931 138.459 220.873 138.459 222.035C138.459 223.197 137.697 224.138 136.757 224.138C135.816 224.138 135.054 223.197 135.054 222.035ZM136.763 216.396C135.569 216.396 134.601 214.004 134.601 211.053C134.601 208.103 135.569 205.711 136.763 205.711C137.958 205.711 138.926 208.103 138.926 211.053C138.926 214.004 137.958 216.396 136.763 216.396V216.396ZM144.052 222.959C142.198 223.106 140.647 222.581 140.587 221.786C140.528 220.991 141.982 220.227 143.836 220.079C145.689 219.932 147.24 220.457 147.3 221.252C147.36 222.047 145.905 222.811 144.052 222.959Z" fill="#E4E4E4"/>
<path d="M96.5319 163.093L99.0858 169.228C99.0858 169.228 103.342 170.981 106.109 165.065L100.503 159.293L96.5319 163.093Z" fill="#CACACA"/>
<path d="M93.0202 164.517C88.4434 164.517 84.7198 161.962 84.7198 158.82C84.7198 155.679 88.4434 153.123 93.0202 153.123C97.597 153.123 101.321 155.679 101.321 158.82C101.321 161.962 97.597 164.517 93.0202 164.517Z" fill="#CACACA"/>
<path d="M253.069 184.566L205.484 185.998C205.484 185.998 195.071 189.006 194.008 197.598C194.008 197.598 195.496 204.615 199.321 204.615C203.147 204.615 261.804 201.465 261.804 201.465C261.804 201.465 265.629 195.45 262.441 191.154C259.253 186.858 253.069 184.566 253.069 184.566Z" fill="#3F3D56"/>
<path d="M257.189 187.304L201.386 189.203L201.407 189.86L257.21 187.961L257.189 187.304Z" fill="#E4E4E4"/>
<path d="M259.218 189.387L198.527 192.218L198.556 192.874L259.247 190.043L259.218 189.387Z" fill="#E4E4E4"/>
<path d="M261.343 192.215L196.258 195.814L196.292 196.47L261.377 192.872L261.343 192.215Z" fill="#E4E4E4"/>
<path d="M35.3243 177.653C35.0644 177.309 34.8808 176.911 34.7866 176.486C34.6923 176.062 34.6897 175.621 34.7788 175.195C34.868 174.769 35.0467 174.368 35.3025 174.021C35.5583 173.674 35.8849 173.389 36.2593 173.186L35.6547 166.404L39.5683 165.02L40.2915 174.61C40.5814 175.281 40.6224 176.037 40.4066 176.736C40.1908 177.436 39.7334 178.029 39.1209 178.404C38.5084 178.779 37.7836 178.91 37.0837 178.772C36.3838 178.633 35.7576 178.235 35.3238 177.653L35.3243 177.653Z" fill="#FFB8B8"/>
<path d="M39.5258 138.727C39.5258 138.727 42.2114 132.924 44.598 134.964C46.9846 137.004 41.3261 154.163 41.3261 154.163L40.4656 170.821L35.9301 170.354L34.6476 154.126L39.5258 138.727Z" fill="#E6E6E6"/>
<path d="M3.50085 224.578L6.86765 227.383L18.9821 215.348L14.0132 211.208L3.50085 224.578Z" fill="#FFB8B8"/>
<path d="M3.53156 222.73L10.1622 228.255C11.2827 229.189 11.997 230.543 12.1479 232.02C12.2988 233.496 11.874 234.973 10.9669 236.127L10.8558 236.268L0 227.222L3.53156 222.73Z" fill="#2F2E41"/>
<path d="M50.2928 232.367H54.6244L56.6841 215.164H50.2919L50.2928 232.367Z" fill="#FFB8B8"/>
<path d="M49.1875 230.911H57.7185C59.1603 230.911 60.543 231.5 61.5625 232.55C62.5821 233.599 63.1549 235.023 63.1551 236.507V236.689H49.1878L49.1875 230.911Z" fill="#2F2E41"/>
<path d="M57.8934 151.724C57.8934 151.724 66.02 161.908 64.2534 172.095C62.4867 182.281 61.0734 189.92 61.0734 189.92L58.2482 212.836C58.2482 212.836 59.3082 219.078 57.8949 220.686C57.8949 220.686 60.0148 224.477 56.1282 225.932C52.2416 227.387 50.1431 225.43 50.1431 225.43C50.1431 225.43 47.2935 221.204 49.0602 220.114L49.8045 175.136L21.5007 213.2C21.5007 213.2 20.9805 217.829 17.3538 217.879L13.0207 221.203L8.0741 218.292L10.5474 215.018C10.5474 215.018 9.13408 211.381 12.314 210.653L30.6873 185.918L35.2805 173.186C35.2805 173.186 37.7538 163.364 44.4671 159.363V155.105L57.8934 151.724Z" fill="#2F2E41"/>
<path d="M43.9372 134.081C45.007 132.78 46.5045 131.929 48.1444 131.69C49.7843 131.452 51.4521 131.843 52.8302 132.789L53.1237 132.99C56.26 136.647 58.3678 141.115 59.2203 145.914L60.5434 153.361L43.9369 157.065L40.0438 143.242C39.5497 141.487 39.6686 139.61 40.3799 137.936C41.0912 136.263 42.3498 134.899 43.9369 134.082L43.9372 134.081Z" fill="#E6E6E6"/>
<path d="M71.2204 179.237C70.76 179.082 70.3382 178.825 69.9848 178.484C69.6313 178.143 69.3547 177.726 69.1745 177.263C68.9943 176.8 68.9149 176.303 68.9418 175.805C68.9688 175.307 69.1014 174.821 69.3305 174.382L64.5399 168.346L67.3927 164.454L74.0415 173.076C74.7329 173.521 75.2416 174.212 75.4714 175.017C75.7012 175.823 75.6361 176.687 75.2884 177.446C74.9407 178.205 74.3345 178.807 73.5848 179.137C72.8351 179.467 71.9938 179.502 71.2204 179.237H71.2204Z" fill="#FFB8B8"/>
<path d="M51.0034 139.538C51.0034 139.538 49.9434 132.263 53.4767 132.626C57.01 132.99 62.31 152.997 62.31 152.997L71.8499 169.367L67.2566 171.913L55.95 157.362L51.0034 139.538Z" fill="#E6E6E6"/>
<path d="M57.4739 128.902H40.6487C40.3026 128.901 39.9708 128.76 39.726 128.508C39.4813 128.256 39.3436 127.914 39.3433 127.558V120.091C39.3433 117.438 40.3671 114.893 42.1896 113.017C44.0121 111.14 46.4839 110.086 49.0613 110.086C51.6387 110.086 54.1105 111.14 55.933 113.017C57.7555 114.893 58.7793 117.438 58.7793 120.091V120.091V127.558C58.7789 127.914 58.6413 128.256 58.3966 128.508C58.1518 128.76 57.82 128.901 57.4739 128.902V128.902Z" fill="#2F2E41"/>
<path d="M51.0584 128.728C54.9934 128.728 58.1833 125.444 58.1833 121.393C58.1833 117.341 54.9934 114.057 51.0584 114.057C47.1234 114.057 43.9335 117.341 43.9335 121.393C43.9335 125.444 47.1234 128.728 51.0584 128.728Z" fill="#FFB8B8"/>
<path d="M61.0783 120.838H52.1116L52.0197 119.317L51.5599 120.838H50.1793L49.9972 117.824L49.086 120.838H46.4146V120.689C46.4146 116.325 49.4202 112.774 53.1156 112.774H54.3799C58.0742 112.774 61.081 116.325 61.081 120.689L61.0783 120.838Z" fill="#2F2E41"/>
<path d="M52.4829 130.296C52.3734 130.296 52.264 130.287 52.1557 130.27L41.483 128.577V117.133C41.483 115.963 41.9341 114.842 42.7371 114.016C43.54 113.189 44.6291 112.724 45.7647 112.724H53.2316L52.9416 113.029C48.8948 117.27 51.9436 124.149 54.1211 127.873C54.2809 128.14 54.353 128.454 54.3269 128.766C54.3008 129.079 54.1778 129.375 53.976 129.611C53.7907 129.83 53.5611 130.005 53.3033 130.124C53.0455 130.242 52.7657 130.301 52.4835 130.297L52.4829 130.296Z" fill="#2F2E41"/>
</g>
<defs>
<clipPath id="clip0_3_72">
<rect width="331" height="248" fill="white"/>
</clipPath>
</defs>
</svg>
